<?xml version="1.0" standalone="no"?>
<!DOCTYPE svg PUBLIC "-//W3C//DTD SVG 20010904//EN"
 "http://www.w3.org/TR/2001/REC-SVG-20010904/DTD/svg10.dtd">
<svg version="1.0" xmlns="http://www.w3.org/2000/svg"
 width="920.000000pt" height="920.000000pt" viewBox="0 0 920.000000 920.000000"
 preserveAspectRatio="xMidYMid meet">
<metadata>
Created by potrace 1.11, written by Peter Selinger 2001-2013
</metadata>
<g transform="translate(0.000000,920.000000) scale(0.100000,-0.100000)"
fill="#000000" stroke="none">
<path d="M4285 9189 c-2113 -140 -3863 -1720 -4219 -3809 -47 -275 -60 -451
-60 -780 0 -431 32 -708 129 -1108 428 -1761 1882 -3116 3671 -3422 307 -53
449 -64 794 -64 228 0 356 5 465 17 772 87 1453 328 2069 735 517 340 968 792
1311 1312 271 412 482 886 605 1362 313 1213 128 2491 -514 3552 -620 1025
-1617 1769 -2771 2066 -479 124 -985 171 -1480 139z m-1213 -2364 c386 -60
739 -210 1036 -440 53 -41 126 -101 162 -134 l65 -60 -277 -277 -276 -277 -79
67 c-205 177 -455 295 -718 341 -124 22 -362 22 -490 0 -537 -92 -989 -485
-1153 -1005 -89 -280 -89 -600 0 -880 168 -531 624 -921 1183 -1010 92 -15
341 -15 430 0 454 76 828 332 1057 724 41 69 120 253 134 309 l6 27 -749 0
c-643 0 -757 2 -801 15 -120 36 -107 124 39 260 174 162 507 343 797 435 193
60 267 70 549 70 186 0 244 3 247 13 2 6 18 73 36 147 126 532 486 1035 960
1340 133 85 353 192 490 238 126 41 284 82 320 82 20 0 20 -9 20 -397 l0 -398
-83 -28 c-334 -115 -623 -354 -800 -662 -44 -76 -118 -249 -132 -307 l-7 -28
1411 0 c776 0 1411 4 1411 8 0 23 -55 165 -93 242 -121 241 -292 437 -503 576
-98 64 -263 146 -355 176 l-69 22 0 398 0 398 23 0 c33 0 240 -54 342 -90 123
-43 350 -156 465 -230 642 -419 1030 -1130 1030 -1890 0 -669 -307 -1317 -824
-1739 -184 -151 -462 -308 -671 -381 -92 -32 -316 -90 -347 -90 -17 0 -18 23
-18 398 l0 398 69 22 c92 30 257 112 355 176 193 127 360 310 478 526 36 66
101 222 113 273 l7 27 -1412 0 -1412 0 7 -27 c14 -59 88 -232 132 -308 112
-194 267 -362 450 -486 89 -61 271 -151 364 -181 l69 -22 0 -398 c0 -375 -1
-398 -18 -398 -31 0 -255 58 -347 90 -209 73 -473 223 -665 377 -108 87 -258
238 -335 338 -33 43 -69 89 -81 103 l-20 25 -81 -104 c-200 -259 -466 -477
-767 -629 -211 -107 -436 -178 -686 -216 -157 -25 -481 -25 -635 -1 -254 39
-454 101 -671 207 -694 340 -1159 999 -1249 1768 -98 840 298 1677 1015 2141
117 76 345 189 464 231 162 56 385 104 571 124 81 8 423 -4 517 -19z"/>
</g>
</svg>
